<svg width="26" height="28" viewBox="0 0 26 28" fill="none" xmlns="http://www.w3.org/2000/svg">
<path d="M24 7V2H18.5M24 7H18.5M24 7V11.5M0 7V2H6M0 7H6M0 7V11.5M12.5 7H18.5M12.5 7H6M12.5 7V11.5M12.5 26H18.5M12.5 26H6M12.5 26V21M18.5 7V11.5M18.5 26H22C23.1046 26 24 25.1046 24 24V21M18.5 26V21M6 7V11.5M6 26H2C0.895431 26 0 25.1046 0 24V21M6 26V21M24 16.5V11.5M24 16.5V21M24 16.5H18.5M0 16.5V11.5M0 16.5V21M0 16.5H6M0 11.5H6M24 11.5H18.5M24 21H18.5M0 21H6M18.5 4V2M18.5 2V0M18.5 2H6M6 2V0M6 2V4M18.5 11.5V16.5M18.5 11.5H12.5M18.5 16.5V21M18.5 16.5H12.5M18.5 21H12.5M12.5 21V16.5M12.5 21H6M12.5 16.5V11.5M12.5 16.5H6M12.5 11.5H6M6 11.5V16.5M6 16.5V21" transform="translate(1.18555 1)" stroke="white" stroke-linecap="square"/>
</svg>
